<?xml version='1.0' encoding='utf-8'?>
<svg xmlns="http://www.w3.org/2000/svg" version="1.1" viewBox="0 0 974 583"> <g transform="matrix(1.4543 -.76969 .7697 1.4543 -289.55 1637.6)" font-family="MA Sexy" font-size="290px" line-height="125%"> <path d="m835.78-554.1s26.238-44.302 33.334-45.512c1.4342 2.9441 6.4358 3.4592 1.2767 6.0582-15.828 10.729-41.936 56.086-34.611 39.454z" fill="#520"/> <path d="m828.62-545.18s80.362 7.298 82.477 69.822c-16.733 87.811-98.772 109.3-137.31 89.266-28.523-15.998-21.954-29.976-21.703-23.536 0 0-17.904-0.0691-35.091-9.0434-28.378-14.818-62.193-115.75 9.0105-159.31 59.246-36.241 102.62 32.8 102.62 32.8z" fill="#c6e9af" stroke="#55ae38" stroke-width="1.474"/> <path d="m831.72-558.16s-25.587-17.215-44.056-42.59c-3.4461-4.7346-22.992-31.909-21.352-32.496 3.6334-2.0044 38.331 8.8702 50.448 20.831 18.644 23.564 17.367 34.85 17.169 40.393-0.72727 20.282-1.3049 15.503-2.209 13.862z" fill="#0A0"/> <path d="m784.05-623.39-0.232 0.5101c30.412 16.774 37.977 34.836 38.575 50.426l0.6431 0.104c-0.60455-15.751-8.4024-34.17-38.986-51.039z" fill="#d7f4d7" stroke-width=".182" style="text-indent:0;text-transform:none"/> <path d="m778.9-515.32c-3.0911 0.94784-5.2372 3.1969-6.9391 5.5586-3.488 4.7276-6.9976 9.5171-9.1452 15.008-0.93013 2.4467-1.5872 5.1226-1.0233 7.9032 0.37652 1.4019 1.8543 2.8763 3.5056 2.8345 1.8909 0.1009 3.2894-1.0123 4.4841-2.038 3.773-3.2652 6.1443-7.64 7.9072-12.162 1.7533-4.5954 2.6371-9.5742 2.4832-14.682-0.0964-0.85125-0.28391-1.786-0.98412-2.501-0.0961 0.0262-0.19231 0.0526-0.28845 0.0788z" fill="#502d16" opacity=".964"/> <path d="m813.72-497.49c-3.0911 0.94784-5.2372 3.1969-6.9391 5.5586-3.488 4.7276-6.9976 9.5171-9.1452 15.008-0.93013 2.4467-1.5872 5.1226-1.0233 7.9032 0.37652 1.4019 1.8543 2.8763 3.5056 2.8345 1.8909 0.1009 3.2894-1.0123 4.4841-2.038 3.773-3.2652 6.1443-7.64 7.9072-12.162 1.7533-4.5954 2.6371-9.5742 2.4832-14.682-0.0964-0.85125-0.28391-1.786-0.98412-2.501-0.0961 0.0262-0.19231 0.0526-0.28845 0.0788z" fill="#502d16" opacity=".964"/> </g> </svg>